<svg data-v-fde0c5aa="" xmlns="http://www.w3.org/2000/svg" viewBox="0 0 300 300" class="iconLeft"><!----><defs data-v-fde0c5aa=""><!----></defs><rect data-v-fde0c5aa="" fill="#FFFFFF" x="0" y="0" width="300px" height="300px" class="logo-background-square"></rect><defs data-v-fde0c5aa=""><!----></defs><g data-v-fde0c5aa="" id="a9335529-a4a6-4e3a-bba1-ef8733bc3aec" fill="#FFFFFF" transform="matrix(1.822760645869439,0,0,1.822760645869439,89.79062201654018,121.4555694329758)"><path d="M6.48 16.17L6.48 16.17L6.48 16.17Q6.48 14.59 5.56 13.87L5.56 13.87L5.56 13.87Q5.09 13.50 4.42 13.50L4.42 13.50L4.42 13.50Q2.46 13.50 2.46 15.71L2.46 15.71L2.46 17.96L2.46 17.96Q3.01 18.68 4.37 18.68L4.37 18.68L4.37 18.68Q5.35 18.68 5.92 17.97L5.92 17.97L5.92 17.97Q6.48 17.26 6.48 16.17ZM2.07 22.12L2.07 22.12L1.48 22.13L1.48 22.13Q0.59 22.13 0.38 21.85L0.38 21.85L0.38 21.85Q0.28 21.73 0.28 21.56L0.28 21.56L0.28 21.56Q0.28 21.38 0.42 21.31L0.42 21.31L0.42 21.31Q0.55 21.25 0.72 21.24L0.72 21.24L0.72 21.24Q0.89 21.23 1.03 21.13L1.03 21.13L1.03 21.13Q1.16 21.03 1.16 20.82L1.16 20.82L1.16 14.65L1.16 14.65Q1.16 14.16 1.09 13.97L1.09 13.97L1.09 13.97Q1.02 13.78 0.77 13.69L0.77 13.69L0.77 13.69Q0.74 13.67 0.49 13.62L0.49 13.62L0.49 13.62Q-0.02 13.49-0.02 13.28L-0.02 13.28L-0.02 13.28Q-0.02 12.74 1.35 12.74L1.35 12.74L1.35 12.74Q1.93 12.74 2.17 12.88L2.17 12.88L2.17 12.88Q2.40 13.02 2.40 13.47L2.40 13.47L2.40 13.47Q2.40 13.60 2.39 13.67L2.39 13.67L2.39 13.67Q2.92 13.16 3.45 12.89L3.45 12.89L3.45 12.89Q3.99 12.63 4.81 12.63L4.81 12.63L4.81 12.63Q5.64 12.63 6.36 13.09L6.36 13.09L6.36 13.09Q7.08 13.56 7.45 14.32L7.45 14.32L7.45 14.32Q7.82 15.08 7.82 16.02L7.82 16.02L7.82 16.02Q7.82 17.50 6.85 18.46L6.85 18.46L6.85 18.46Q5.88 19.43 4.38 19.43L4.38 19.43L4.38 19.43Q3.54 19.43 2.46 18.87L2.46 18.87L2.46 20.82L2.46 20.82Q2.46 21.21 2.90 21.24L2.90 21.24L2.90 21.24Q3.34 21.26 3.34 21.59L3.34 21.59L3.34 21.59Q3.34 21.96 2.93 22.05L2.93 22.05L2.93 22.05Q2.63 22.12 2.07 22.12ZM10.43 19.32L10.43 19.32L9.84 19.33L9.84 19.33Q8.95 19.33 8.74 19.05L8.74 19.05L8.74 19.05Q8.64 18.93 8.64 18.75L8.64 18.75L8.64 18.75Q8.64 18.58 8.78 18.51L8.78 18.51L8.78 18.51Q8.91 18.44 9.08 18.44L9.08 18.44L9.08 18.44Q9.24 18.43 9.38 18.33L9.38 18.33L9.38 18.33Q9.52 18.23 9.52 18.01L9.52 18.01L9.52 10.79L9.52 10.79Q9.52 10.17 9.02 10.12L9.02 10.12L9.02 10.12Q8.98 10.12 8.90 10.11L8.90 10.11L8.90 10.11Q8.83 10.10 8.79 10.10L8.79 10.10L8.79 10.10Q8.76 10.10 8.71 10.09L8.71 10.09L8.71 10.09Q8.65 10.08 8.63 10.06L8.63 10.06L8.63 10.06Q8.61 10.05 8.59 10.03L8.59 10.03L8.59 10.03Q8.54 9.99 8.54 9.83L8.54 9.83L8.54 9.83Q8.54 9.67 8.75 9.50L8.75 9.50L8.75 9.50Q9.13 9.19 9.78 9.19L9.78 9.19L9.78 9.19Q10.47 9.19 10.59 9.27L10.59 9.27L10.59 9.27Q10.82 9.43 10.82 9.70L10.82 9.70L10.82 18.01L10.82 18.01Q10.82 18.41 11.26 18.43L11.26 18.43L11.26 18.43Q11.70 18.46 11.70 18.79L11.70 18.79L11.70 18.79Q11.70 19.16 11.29 19.25L11.29 19.25L11.29 19.25Q10.98 19.32 10.43 19.32ZM13.82 14.98L13.82 14.98L13.82 14.98Q13.56 14.98 13.24 14.78L13.24 14.78L13.24 14.78Q12.93 14.58 12.93 14.26L12.93 14.26L12.93 14.26Q12.93 13.93 13.11 13.64L13.11 13.64L13.11 13.64Q13.30 13.36 13.59 13.18L13.59 13.18L13.59 13.18Q13.88 13.00 14.27 12.87L14.27 12.87L14.27 12.87Q14.98 12.65 15.80 12.65L15.80 12.65L15.80 12.65Q17.19 12.65 17.81 13.26L17.81 13.26L17.81 13.26Q18.44 13.87 18.44 15.28L18.44 15.28L18.43 17.29L18.43 17.29Q18.43 18.03 18.61 18.21L18.61 18.21L18.61 18.21Q18.66 18.26 18.92 18.33L18.92 18.33L18.92 18.33Q19.61 18.55 19.61 18.67L19.61 18.67L19.61 18.67Q19.61 19.39 18.14 19.39L18.14 19.39L18.14 19.39Q17.59 19.39 17.42 19.14L17.42 19.14L17.42 19.14Q17.25 18.89 17.24 18.25L17.24 18.25L17.24 18.25Q16.93 18.80 16.30 19.14L16.30 19.14L16.30 19.14Q15.67 19.48 14.96 19.48L14.96 19.48L14.96 19.48Q14.24 19.48 13.74 19.30L13.74 19.30L13.74 19.30Q13.24 19.11 12.93 18.70L12.93 18.70L12.93 18.70Q12.62 18.29 12.62 17.81L12.62 17.81L12.62 17.81Q12.62 17.33 12.73 17.04L12.73 17.04L12.73 17.04Q12.84 16.75 13.00 16.55L13.00 16.55L13.00 16.55Q13.17 16.35 13.45 16.19L13.45 16.19L13.45 16.19Q13.73 16.04 13.98 15.94L13.98 15.94L13.98 15.94Q14.23 15.85 14.62 15.78L14.62 15.78L14.62 15.78Q15.19 15.67 15.58 15.62L15.58 15.62L15.58 15.62Q15.97 15.58 15.98 15.57L15.98 15.57L15.98 15.57Q16.02 15.57 16.45 15.52L16.45 15.52L16.45 15.52Q16.88 15.48 17.12 15.34L17.12 15.34L17.12 15.34Q17.12 14.04 16.78 13.64L16.78 13.64L16.78 13.64Q16.47 13.30 15.76 13.30L15.76 13.30L15.76 13.30Q15.06 13.30 14.71 13.66L14.71 13.66L14.71 13.66Q14.36 14.02 14.36 14.80L14.36 14.80L14.36 14.95L14.36 14.95Q14.08 14.98 13.82 14.98ZM17.12 15.96L17.12 15.96L17.12 15.96Q16.66 16.13 16.07 16.19L16.07 16.19L16.07 16.19Q15.49 16.26 15.16 16.34L15.16 16.34L15.16 16.34Q14.82 16.43 14.59 16.56L14.59 16.56L14.59 16.56Q14.08 16.86 14.08 17.60L14.08 17.60L14.08 17.60Q14.08 18.77 15.44 18.77L15.44 18.77L15.44 18.77Q16.63 18.77 16.94 17.64L16.94 17.64L16.94 17.64Q17.12 17.00 17.12 15.96ZM23.39 18.70L23.39 18.70L23.39 18.70Q24.92 18.70 24.92 17.75L24.92 17.75L24.92 17.75Q24.92 17.04 23.54 16.64L23.54 16.64L23.54 16.64Q23.28 16.56 22.91 16.46L22.91 16.46L22.91 16.46Q22.22 16.28 21.98 16.18L21.98 16.18L21.98 16.18Q21.38 15.95 20.96 15.50L20.96 15.50L20.96 15.50Q20.54 15.06 20.54 14.45L20.54 14.45L20.54 14.45Q20.54 13.67 21.29 13.15L21.29 13.15L21.29 13.15Q22.04 12.63 23.10 12.63L23.10 12.63L23.10 12.63Q24.13 12.63 25.03 13.00L25.03 13.00L25.03 13.00Q25.48 13.19 25.75 13.51L25.75 13.51L25.75 13.51Q26.03 13.84 26.03 14.20L26.03 14.20L26.03 14.20Q26.03 14.55 25.75 14.77L25.75 14.77L25.75 14.77Q25.46 14.98 25.16 14.98L25.16 14.98L25.16 14.98Q24.86 14.98 24.76 14.92L24.76 14.92L24.76 14.92Q24.66 14.86 24.66 14.65L24.66 14.65L24.66 14.65Q24.66 13.33 23.26 13.33L23.26 13.33L23.26 13.33Q22.67 13.33 22.24 13.59L22.24 13.59L22.24 13.59Q21.81 13.84 21.81 14.25L21.81 14.25L21.81 14.25Q21.81 14.90 23.15 15.27L23.15 15.27L23.15 15.27Q23.37 15.33 23.67 15.40L23.67 15.40L23.67 15.40Q23.97 15.48 24.22 15.56L24.22 15.56L24.22 15.56Q24.47 15.64 24.75 15.75L24.75 15.75L24.75 15.75Q25.03 15.85 25.33 16.02L25.33 16.02L25.33 16.02Q25.64 16.19 25.83 16.39L25.83 16.39L25.83 16.39Q26.28 16.84 26.28 17.48L26.28 17.48L26.28 17.48Q26.28 18.12 25.85 18.59L25.85 18.59L25.85 18.59Q24.99 19.50 23.39 19.50L23.39 19.50L23.39 19.50Q22.34 19.50 21.46 19.15L21.46 19.15L21.46 19.15Q21.01 18.98 20.73 18.66L20.73 18.66L20.73 18.66Q20.46 18.35 20.46 17.99L20.46 17.99L20.46 17.99Q20.46 17.64 20.69 17.44L20.69 17.44L20.69 17.44Q20.91 17.25 21.20 17.25L21.20 17.25L21.20 17.25Q21.49 17.25 21.69 17.42L21.69 17.42L21.69 17.42Q21.89 17.60 21.89 17.87L21.89 17.87L21.89 17.87Q21.89 18.13 21.84 18.43L21.84 18.43L21.84 18.43Q22.57 18.70 23.39 18.70ZM27.90 17.48L27.90 13.66L27.48 13.67L27.48 13.67Q27.23 13.67 27.11 13.62L27.11 13.62L27.11 13.62Q27.00 13.57 27.00 13.42L27.00 13.42L27.00 13.42Q27.00 13.26 27.13 13.14L27.13 13.14L27.13 13.14Q27.26 13.01 27.43 12.94L27.43 12.94L27.43 12.94Q27.90 12.75 28.00 12.62L28.00 12.62L28.00 12.62Q28.09 12.48 28.27 12.03L28.27 12.03L28.27 12.03Q28.73 10.90 29.04 10.90L29.04 10.90L29.04 10.90Q29.20 10.90 29.22 11.24L29.22 11.24L29.22 11.24Q29.24 11.58 29.25 11.76L29.25 11.76L29.25 11.76Q29.25 11.94 29.24 12.29L29.24 12.29L29.24 12.29Q29.24 12.64 29.24 12.78L29.24 12.78L30.86 12.78L30.86 12.78Q31.10 12.78 31.27 12.90L31.27 12.90L31.27 12.90Q31.43 13.02 31.43 13.22L31.43 13.22L31.43 13.22Q31.43 13.42 31.27 13.53L31.27 13.53L31.27 13.53Q31.11 13.64 30.87 13.64L30.87 13.64L29.24 13.64L29.23 17.13L29.23 17.13Q29.23 18.61 29.98 18.61L29.98 18.61L29.98 18.61Q30.18 18.61 30.58 18.49L30.58 18.49L30.58 18.49Q30.99 18.36 31.11 18.36L31.11 18.36L31.11 18.36Q31.39 18.36 31.39 18.68L31.39 18.68L31.39 18.68Q31.39 18.94 30.73 19.19L30.73 19.19L30.73 19.19Q30.07 19.44 29.38 19.44L29.38 19.44L29.38 19.44Q28.68 19.44 28.29 18.90L28.29 18.90L28.29 18.90Q27.90 18.36 27.90 17.48L27.90 17.48ZM33.24 10.74L33.24 10.74L33.24 10.74Q33.24 10.44 33.53 10.18L33.53 10.18L33.53 10.18Q33.82 9.91 34.17 9.91L34.17 9.91L34.17 9.91Q34.51 9.91 34.84 10.12L34.84 10.12L34.84 10.12Q35.16 10.34 35.16 10.68L35.16 10.68L35.16 10.68Q35.16 11.03 34.89 11.27L34.89 11.27L34.89 11.27Q34.62 11.50 34.22 11.50L34.22 11.50L34.22 11.50Q33.82 11.50 33.53 11.29L33.53 11.29L33.53 11.29Q33.24 11.07 33.24 10.74ZM34.67 19.32L34.67 19.32L34.08 19.33L34.08 19.33Q33.19 19.33 32.98 19.05L32.98 19.05L32.98 19.05Q32.88 18.93 32.88 18.75L32.88 18.75L32.88 18.75Q32.88 18.58 33.02 18.51L33.02 18.51L33.02 18.51Q33.15 18.44 33.32 18.44L33.32 18.44L33.32 18.44Q33.49 18.43 33.63 18.33L33.63 18.33L33.63 18.33Q33.76 18.23 33.76 18.01L33.76 18.01L33.76 14.33L33.76 14.33Q33.76 13.71 33.28 13.67L33.28 13.67L33.28 13.67Q33.23 13.66 33.15 13.65L33.15 13.65L33.15 13.65Q33.08 13.64 33.04 13.64L33.04 13.64L33.04 13.64Q33.01 13.64 32.96 13.63L32.96 13.63L32.96 13.63Q32.91 13.62 32.88 13.60L32.88 13.60L32.88 13.60Q32.86 13.59 32.83 13.57L32.83 13.57L32.83 13.57Q32.79 13.54 32.79 13.37L32.79 13.37L32.79 13.37Q32.79 13.21 32.99 13.04L32.99 13.04L32.99 13.04Q33.38 12.73 34.03 12.73L34.03 12.73L34.03 12.73Q34.63 12.73 34.74 12.78L34.74 12.78L34.74 12.78Q34.84 12.82 34.92 12.88L34.92 12.88L34.92 12.88Q35.06 12.97 35.06 13.24L35.06 13.24L35.06 18.01L35.06 18.01Q35.06 18.41 35.50 18.43L35.50 18.43L35.50 18.43Q35.94 18.46 35.94 18.79L35.94 18.79L35.94 18.79Q35.94 19.16 35.53 19.25L35.53 19.25L35.53 19.25Q35.22 19.32 34.67 19.32ZM42.89 17.99L42.89 17.99L42.89 17.99Q43.20 17.99 43.20 18.27L43.20 18.27L43.20 18.27Q43.20 18.43 43.10 18.53L43.10 18.53L43.10 18.53Q42.19 19.50 40.49 19.50L40.49 19.50L40.49 19.50Q38.79 19.50 37.79 18.58L37.79 18.58L37.79 18.58Q36.80 17.66 36.80 16.14L36.80 16.14L36.80 16.14Q36.80 15.15 37.28 14.35L37.28 14.35L37.28 14.35Q37.76 13.54 38.59 13.09L38.59 13.09L38.59 13.09Q39.42 12.64 40.43 12.64L40.43 12.64L40.43 12.64Q41.85 12.64 42.62 13.37L42.62 13.37L42.62 13.37Q43.02 13.76 43.02 14.28L43.02 14.28L43.02 14.28Q43.02 14.59 42.76 14.80L42.76 14.80L42.76 14.80Q42.51 15.01 42.15 15.01L42.15 15.01L42.15 15.01Q41.79 15.01 41.64 14.95L41.64 14.95L41.64 14.95Q41.59 14.18 41.32 13.76L41.32 13.76L41.32 13.76Q41.05 13.35 40.41 13.35L40.41 13.35L40.41 13.35Q39.38 13.35 38.78 14.01L38.78 14.01L38.78 14.01Q38.19 14.68 38.19 15.80L38.19 15.80L38.19 15.80Q38.19 16.92 38.95 17.75L38.95 17.75L38.95 17.75Q39.70 18.57 40.85 18.57L40.85 18.57L40.85 18.57Q41.53 18.57 42.51 18.09L42.51 18.09L42.51 18.09Q42.72 17.99 42.89 17.99ZM52.58 10.99L52.58 10.99L52.58 10.99Q52.75 11.24 52.85 11.57L52.85 11.57L52.85 11.57Q52.94 11.89 52.94 12.34L52.94 12.34L52.94 12.34Q52.94 12.78 52.78 13.19L52.78 13.19L52.78 13.19Q52.61 13.60 52.34 13.88L52.34 13.88L52.34 13.88Q52.07 14.16 51.69 14.39L51.69 14.39L51.69 14.39Q51.00 14.79 50.06 14.98L50.06 14.98L50.42 15.47L50.42 15.47Q50.56 15.67 50.80 16.01L50.80 16.01L50.80 16.01Q51.04 16.35 51.18 16.55L51.18 16.55L51.18 16.55Q51.32 16.74 51.54 17.02L51.54 17.02L51.54 17.02Q51.75 17.31 51.93 17.50L51.93 17.50L51.93 17.50Q52.33 17.96 52.76 18.29L52.76 18.29L52.76 18.29Q53.18 18.61 54.12 18.61L54.12 18.61L54.12 18.61Q54.24 18.73 54.24 18.89L54.24 18.89L54.24 18.89Q54.24 19.43 53.10 19.43L53.10 19.43L53.10 19.43Q51.96 19.43 51.39 19.04L51.39 19.04L51.40 19.04L51.40 19.04Q50.50 18.31 49.33 16.13L49.33 16.13L48.76 15.09L46.87 15.09L46.87 18.14L46.87 18.14Q46.87 18.27 47.15 18.35L47.15 18.35L47.15 18.35Q47.44 18.44 47.73 18.52L47.73 18.52L47.73 18.52Q48.02 18.60 48.02 18.70L48.02 18.70L48.02 18.70Q48.02 18.93 47.91 19.06L47.91 19.06L47.91 19.06Q47.80 19.20 47.51 19.25L47.51 19.25L47.51 19.25Q47.14 19.31 46.58 19.31L46.58 19.31L46.58 19.31Q46.01 19.31 45.81 19.31L45.81 19.31L45.81 19.31Q45.62 19.32 45.41 19.31L45.41 19.31L45.41 19.31Q45.21 19.31 45.02 19.30L45.02 19.30L45.02 19.30Q44.84 19.29 44.69 19.25L44.69 19.25L44.69 19.25Q44.54 19.22 44.42 19.15L44.42 19.15L44.42 19.15Q44.19 19.04 44.19 18.82L44.19 18.82L44.19 18.82Q44.19 18.60 44.37 18.52L44.37 18.52L44.37 18.52Q44.54 18.44 44.76 18.44L44.76 18.44L44.76 18.44Q45.34 18.42 45.34 18.14L45.34 18.14L45.34 10.88L45.34 10.88Q45.34 10.72 45.05 10.65L45.05 10.65L45.05 10.65Q44.76 10.58 44.47 10.52L44.47 10.52L44.47 10.52Q44.19 10.47 44.19 10.33L44.19 10.33L44.19 10.33Q44.19 10.19 44.28 10.08L44.28 10.08L44.28 10.08Q44.37 9.97 44.56 9.91L44.56 9.91L44.56 9.91Q44.74 9.84 44.93 9.80L44.93 9.80L44.93 9.80Q45.12 9.76 45.41 9.75L45.41 9.75L45.41 9.75Q45.81 9.72 46.39 9.72L46.39 9.72L47.57 9.72L47.57 9.72Q49.32 9.72 49.92 9.81L49.92 9.81L49.92 9.81Q50.52 9.91 50.92 10.00L50.92 10.00L50.92 10.00Q51.32 10.10 51.60 10.23L51.60 10.23L51.60 10.23Q51.88 10.36 52.15 10.55L52.15 10.55L52.15 10.55Q52.42 10.75 52.58 10.99ZM51.41 12.56L51.41 12.56L51.41 12.56Q51.41 12.08 51.22 11.70L51.22 11.70L51.22 11.70Q51.03 11.33 50.73 11.11L50.73 11.11L50.73 11.11Q50.43 10.89 49.98 10.76L49.98 10.76L49.98 10.76Q49.23 10.53 48.31 10.53L48.31 10.53L48.31 10.53Q47.39 10.53 47.13 10.72L47.13 10.72L47.13 10.72Q46.87 10.90 46.87 11.50L46.87 11.50L46.87 14.26L48.71 14.26L48.71 14.26Q51.41 14.26 51.41 12.56ZM55.52 18.57L55.52 18.57L55.52 18.57Q54.57 17.64 54.57 16.11L54.57 16.11L54.57 16.11Q54.57 14.57 55.52 13.61L55.52 13.61L55.52 13.61Q56.48 12.65 57.96 12.65L57.96 12.65L57.96 12.65Q59.12 12.65 59.93 13.40L59.93 13.40L59.93 13.40Q60.73 14.16 60.73 15.30L60.73 15.30L60.73 15.30Q60.73 15.85 59.86 15.85L59.86 15.85L55.90 15.85L55.90 15.85Q55.91 16.96 56.62 17.72L56.62 17.72L56.62 17.72Q57.32 18.48 58.39 18.48L58.39 18.48L58.39 18.48Q59.10 18.48 59.77 18.06L59.77 18.06L59.77 18.06Q60.13 17.84 60.23 17.84L60.23 17.84L60.23 17.84Q60.33 17.84 60.45 17.94L60.45 17.94L60.45 17.94Q60.58 18.04 60.58 18.18L60.58 18.18L60.58 18.18Q60.58 18.56 60.10 18.88L60.10 18.88L60.10 18.88Q59.62 19.20 59.04 19.35L59.04 19.35L59.04 19.35Q58.45 19.50 58.02 19.50L58.02 19.50L58.02 19.50Q56.46 19.50 55.52 18.57ZM59.47 15.13L59.47 15.13L59.47 15.13Q59.46 14.35 59.06 13.86L59.06 13.86L59.06 13.86Q58.67 13.36 57.90 13.36L57.90 13.36L57.90 13.36Q57.14 13.36 56.57 13.91L56.57 13.91L56.57 13.91Q56 14.46 55.97 15.16L55.97 15.16L57.57 15.16L57.57 15.16Q58.63 15.16 59.47 15.13ZM67.46 17.99L67.46 17.99L67.46 17.99Q67.76 17.99 67.76 18.27L67.76 18.27L67.76 18.27Q67.76 18.43 67.67 18.53L67.67 18.53L67.67 18.53Q66.76 19.50 65.06 19.50L65.06 19.50L65.06 19.50Q63.36 19.50 62.36 18.58L62.36 18.58L62.36 18.58Q61.37 17.66 61.37 16.14L61.37 16.14L61.37 16.14Q61.37 15.15 61.85 14.35L61.85 14.35L61.85 14.35Q62.33 13.54 63.16 13.09L63.16 13.09L63.16 13.09Q63.99 12.64 65.00 12.64L65.00 12.64L65.00 12.64Q66.42 12.64 67.18 13.37L67.18 13.37L67.18 13.37Q67.59 13.76 67.59 14.28L67.59 14.28L67.59 14.28Q67.59 14.59 67.33 14.80L67.33 14.80L67.33 14.80Q67.07 15.01 66.72 15.01L66.72 15.01L66.72 15.01Q66.36 15.01 66.21 14.95L66.21 14.95L66.21 14.95Q66.16 14.18 65.89 13.76L65.89 13.76L65.89 13.76Q65.62 13.35 64.98 13.35L64.98 13.35L64.98 13.35Q63.94 13.35 63.35 14.01L63.35 14.01L63.35 14.01Q62.76 14.68 62.76 15.80L62.76 15.80L62.76 15.80Q62.76 16.92 63.52 17.75L63.52 17.75L63.52 17.75Q64.27 18.57 65.42 18.57L65.42 18.57L65.42 18.57Q66.10 18.57 67.08 18.09L67.08 18.09L67.08 18.09Q67.29 17.99 67.46 17.99ZM72.20 17.92L72.20 17.92L72.20 17.92Q73.93 14.26 73.93 14.05L73.93 14.05L73.93 14.05Q73.93 13.85 73.78 13.77L73.78 13.77L73.78 13.77Q73.63 13.69 73.45 13.67L73.45 13.67L73.45 13.67Q72.97 13.62 72.97 13.39L72.97 13.39L72.97 13.39Q72.97 12.77 74.44 12.77L74.44 12.77L74.72 12.77L74.72 12.77Q75.37 12.77 75.66 12.98L75.66 12.98L75.66 12.98Q75.94 13.19 75.94 13.38L75.94 13.38L75.94 13.38Q75.94 13.56 75.74 13.60L75.74 13.60L75.74 13.60Q75.31 13.68 75.10 13.84L75.10 13.84L75.10 13.84Q74.89 14 74.70 14.43L74.70 14.43L74.70 14.43Q74.50 14.86 74.03 15.90L74.03 15.90L74.03 15.90Q73.57 16.94 73.25 17.60L73.25 17.60L71.78 20.62L71.78 20.62Q71.55 21.11 71.19 21.43L71.19 21.43L71.19 21.43Q70.82 21.76 70.32 21.76L70.32 21.76L70.32 21.76Q69.82 21.76 69.45 21.51L69.45 21.51L69.45 21.51Q69.08 21.26 69.08 20.87L69.08 20.87L69.08 20.87Q69.08 20.47 69.31 20.24L69.31 20.24L69.31 20.24Q69.55 20.02 69.90 20.02L69.90 20.02L69.90 20.02Q70.26 20.02 70.54 20.19L70.54 20.19L70.54 20.19Q70.83 20.37 70.84 20.63L70.84 20.63L70.84 20.63Q71.39 19.76 71.57 19.28L71.57 19.28L71.57 19.28Q71.29 18.48 70.26 16.50L70.26 16.50L70.26 16.50Q69.24 14.51 69.13 14.28L69.13 14.28L69.13 14.28Q69.02 14.05 68.94 13.97L68.94 13.97L68.94 13.97Q68.87 13.88 68.74 13.82L68.74 13.82L68.74 13.82Q68.62 13.75 68.54 13.73L68.54 13.73L68.54 13.73Q68.46 13.70 68.27 13.65L68.27 13.65L68.27 13.65Q68.09 13.60 67.97 13.57L67.97 13.57L67.97 13.57Q67.86 13.54 67.86 13.36L67.86 13.36L67.86 13.36Q67.86 12.77 69.47 12.77L69.47 12.77L69.47 12.77Q70.46 12.77 70.75 12.87L70.75 12.87L70.75 12.87Q71.29 13.06 71.29 13.38L71.29 13.38L71.29 13.38Q71.29 13.59 70.88 13.67L70.88 13.67L70.88 13.67Q70.47 13.75 70.47 13.97L70.47 13.97L70.47 13.97Q70.47 13.99 70.71 14.62L70.71 14.62L70.71 14.62Q71.50 16.65 72.20 17.92ZM82.16 17.99L82.16 17.99L82.16 17.99Q82.47 17.99 82.47 18.27L82.47 18.27L82.47 18.27Q82.47 18.43 82.37 18.53L82.37 18.53L82.37 18.53Q81.46 19.50 79.76 19.50L79.76 19.50L79.76 19.50Q78.06 19.50 77.06 18.58L77.06 18.58L77.06 18.58Q76.07 17.66 76.07 16.14L76.07 16.14L76.07 16.14Q76.07 15.15 76.55 14.35L76.55 14.35L76.55 14.35Q77.03 13.54 77.86 13.09L77.86 13.09L77.86 13.09Q78.70 12.64 79.71 12.64L79.71 12.64L79.71 12.64Q81.12 12.64 81.89 13.37L81.89 13.37L81.89 13.37Q82.29 13.76 82.29 14.28L82.29 14.28L82.29 14.28Q82.29 14.59 82.03 14.80L82.03 14.80L82.03 14.80Q81.78 15.01 81.42 15.01L81.42 15.01L81.42 15.01Q81.07 15.01 80.91 14.95L80.91 14.95L80.91 14.95Q80.86 14.18 80.59 13.76L80.59 13.76L80.59 13.76Q80.32 13.35 79.69 13.35L79.69 13.35L79.69 13.35Q78.65 13.35 78.06 14.01L78.06 14.01L78.06 14.01Q77.46 14.68 77.46 15.80L77.46 15.80L77.46 15.80Q77.46 16.92 78.22 17.75L78.22 17.75L78.22 17.75Q78.98 18.57 80.12 18.57L80.12 18.57L80.12 18.57Q80.80 18.57 81.79 18.09L81.79 18.09L81.79 18.09Q82.00 17.99 82.16 17.99ZM85.24 19.32L85.24 19.32L84.65 19.33L84.65 19.33Q83.75 19.33 83.54 19.05L83.54 19.05L83.54 19.05Q83.45 18.93 83.45 18.75L83.45 18.75L83.45 18.75Q83.45 18.58 83.58 18.51L83.58 18.51L83.58 18.51Q83.72 18.44 83.88 18.44L83.88 18.44L83.88 18.44Q84.05 18.43 84.18 18.33L84.18 18.33L84.18 18.33Q84.32 18.23 84.32 18.01L84.32 18.01L84.32 10.79L84.32 10.79Q84.32 10.17 83.83 10.12L83.83 10.12L83.83 10.12Q83.78 10.12 83.71 10.11L83.71 10.11L83.71 10.11Q83.63 10.10 83.60 10.10L83.60 10.10L83.60 10.10Q83.56 10.10 83.51 10.09L83.51 10.09L83.51 10.09Q83.46 10.08 83.44 10.06L83.44 10.06L83.44 10.06Q83.41 10.05 83.39 10.03L83.39 10.03L83.39 10.03Q83.34 9.99 83.34 9.83L83.34 9.83L83.34 9.83Q83.34 9.67 83.56 9.50L83.56 9.50L83.56 9.50Q83.94 9.19 84.59 9.19L84.59 9.19L84.59 9.19Q85.28 9.19 85.39 9.27L85.39 9.27L85.39 9.27Q85.63 9.43 85.63 9.70L85.63 9.70L85.63 18.01L85.63 18.01Q85.63 18.41 86.07 18.43L86.07 18.43L86.07 18.43Q86.51 18.46 86.51 18.79L86.51 18.79L86.51 18.79Q86.51 19.16 86.10 19.25L86.10 19.25L86.10 19.25Q85.78 19.32 85.24 19.32ZM88.17 18.57L88.17 18.57L88.17 18.57Q87.22 17.64 87.22 16.11L87.22 16.11L87.22 16.11Q87.22 14.57 88.17 13.61L88.17 13.61L88.17 13.61Q89.13 12.65 90.60 12.65L90.60 12.65L90.60 12.65Q91.77 12.65 92.58 13.40L92.58 13.40L92.58 13.40Q93.38 14.16 93.38 15.30L93.38 15.30L93.38 15.30Q93.38 15.85 92.50 15.85L92.50 15.85L88.55 15.85L88.55 15.85Q88.56 16.96 89.26 17.72L89.26 17.72L89.26 17.72Q89.97 18.48 91.04 18.48L91.04 18.48L91.04 18.48Q91.75 18.48 92.42 18.06L92.42 18.06L92.42 18.06Q92.78 17.84 92.88 17.84L92.88 17.84L92.88 17.84Q92.98 17.84 93.10 17.94L93.10 17.94L93.10 17.94Q93.23 18.04 93.23 18.18L93.23 18.18L93.23 18.18Q93.23 18.56 92.75 18.88L92.75 18.88L92.75 18.88Q92.26 19.20 91.68 19.35L91.68 19.35L91.68 19.35Q91.10 19.50 90.67 19.50L90.67 19.50L90.67 19.50Q89.11 19.50 88.17 18.57ZM92.12 15.13L92.12 15.13L92.12 15.13Q92.11 14.35 91.71 13.86L91.71 13.86L91.71 13.86Q91.31 13.36 90.55 13.36L90.55 13.36L90.55 13.36Q89.79 13.36 89.22 13.91L89.22 13.91L89.22 13.91Q88.65 14.46 88.61 15.16L88.61 15.16L90.21 15.16L90.21 15.16Q91.28 15.16 92.12 15.13Z"></path></g><defs data-v-fde0c5aa=""><!----></defs><g data-v-fde0c5aa="" id="58e6af81-6b95-441a-bca4-168f9adfc4c5" stroke="none" fill="#156C24" transform="matrix(0.3675379946494247,0,0,0.3675379946494247,40.00000017525577,132.3101085054827)"><path d="M29.526 52.639l4.475 2.738c.755 0 1.136-.312 1.136-.936 0-.399-.182-.954-.534-1.669l-9.887-18.571-21.912.536c-.98.046-1.469.557-1.469 1.536 0 .223.311.534.935.935l4.543 2.738-4.81 7.48C.668 49.565 0 51.327 0 52.706c0 1.25.442 2.652 1.335 4.209l14.897 25.984c-.357-1.646-.534-3.206-.534-4.677 0-2.623.821-5.209 2.47-7.748l11.358-17.835zM35.271 37.476l12.291-19.038c-4.59-10.464-9.466-15.7-14.63-15.7-3.119 0-5.208.871-6.277 2.605L15.029 23.916l20.242 13.56z"></path><path d="M25.251 89.044h23.714V64.396H26.119c-2.806 4.007-4.566 6.728-5.277 8.15-1.16 2.27-1.736 4.589-1.736 6.945 0 6.371 2.046 9.553 6.145 9.553zM74.083 32.933l10.553-17.77a3.858 3.858 0 0 0 .534-1.936c0-.802-.267-1.203-.8-1.203.084 0-.268.134-1.069.401l-4.81 2.204-4.408-8.75C72.121 1.961 68.204 0 62.325 0H34.871c3.339 1.026 5.609 2.027 6.812 3.006 2.807 2.228 5.678 6.413 8.617 12.558l5.479 11.491-4.077 1.938c-.4.18-.6.534-.6 1.068 0 .668.421 1.05 1.269 1.136l21.712 1.736zM84.635 85.372L100 57.449c-2.271 2.585-4.743 4.322-7.414 5.211-2.138.714-5.193 1.069-9.154 1.069h-17.1v-3.542c0-1.379-.335-2.071-1.003-2.071-.491 0-.849.182-1.068.535l-10.82 18.771 11.222 17.236c.847 1.292 1.579 1.803 2.204 1.534.621-.177.936-.509.936-1v-5.88h9.485c3.474 0 5.922-1.312 7.347-3.94z"></path><path d="M77.956 60.187h10.222c2.447 0 4.985-1.068 7.614-3.205 2.806-2.226 4.209-4.587 4.209-7.083 0-1.154-.382-2.291-1.137-3.406l-12.156-18.57-20.912 12.16 12.16 20.104z"></path></g><!----></svg>